# xmcd
#
# Track frame offsets:
#	150
#	11993
#	23369
#	34075
#	47622
#	59260
#	71891
#	81568
#	91818
#	101649
#	111685
#	122347
#	132310
#	143595
#	154787
#
# Disc length: 2190 seconds
#
# Revision: 1
# Processed by: cddbd v1.5.2PL0 Copyright (c) Steve Scherf et al.
# Submitted via: audiograbber 1.83.01
#
DISCID=ca088c0f
DTITLE=Wanda Jackson - Right or Wrong
DYEAR=2013
DGENRE=Country
TTITLE0=Right Or Wrong
TTITLE1=Why I'm Walking
TTITLE2=So Soon
TTITLE3=Last Letter
TTITLE4=May Never Get To Heaven
TTITLE5=Window Up Above
TTITLE6=Sticks And Stones
TTITLE7=Stupid Cupid
TTITLE8=Slipin' And Slidin'
TTITLE9=Brown Eyed Handsome Man
TTITLE10=Who Shot Sam
TTITLE11=My Baby Left Me
TTITLE12=You Can't Have My Love (With Billy Gray)
TTITLE13=In The Middle Of A Heartache
TTITLE14=Lets Have A Party
EXTD=
EXTT0=
EXTT1=
EXTT2=
EXTT3=
EXTT4=
EXTT5=
EXTT6=
EXTT7=
EXTT8=
EXTT9=
EXTT10=
EXTT11=
EXTT12=
EXTT13=
EXTT14=
PLAYORDER=
